<svg width="639" height="178" viewBox="0 0 639 178" fill="none" xmlns="http://www.w3.org/2000/svg">
<g clip-path="url(#clip0_10_207)">
<path d="M277.4 43.376V65.904H241.816V78.448H267.416V99.824H241.816V134H213.4V43.376H277.4ZM321.329 134.896C314.076 134.896 307.548 133.403 301.745 130.416C295.942 127.429 291.377 123.163 288.049 117.616C284.806 111.984 283.185 105.413 283.185 97.904C283.185 90.3947 284.806 83.8667 288.049 78.32C291.377 72.688 295.942 68.3787 301.745 65.392C307.548 62.4053 314.076 60.912 321.329 60.912C328.582 60.912 335.11 62.4053 340.913 65.392C346.716 68.3787 351.238 72.688 354.481 78.32C357.809 83.8667 359.473 90.3947 359.473 97.904C359.473 105.413 357.809 111.984 354.481 117.616C351.238 123.163 346.716 127.429 340.913 130.416C335.11 133.403 328.582 134.896 321.329 134.896ZM321.329 110.32C323.974 110.32 326.193 109.296 327.985 107.248C329.777 105.115 330.673 102 330.673 97.904C330.673 93.808 329.777 90.736 327.985 88.688C326.193 86.5547 323.974 85.488 321.329 85.488C318.684 85.488 316.465 86.5547 314.673 88.688C312.881 90.736 311.985 93.808 311.985 97.904C311.985 102 312.838 105.115 314.545 107.248C316.337 109.296 318.598 110.32 321.329 110.32ZM415.76 134L403.6 117.744L394.512 134H363.28L387.472 95.984L362 61.808H393.744L405.904 78.192L415.12 61.808H446.352L421.392 98.928L447.504 134H415.76ZM501.26 134L489.1 117.744L480.012 134H448.78L472.972 95.984L447.5 61.808H479.244L491.404 78.192L500.62 61.808H531.852L506.892 98.928L533.004 134H501.26ZM620.936 61.808L574.728 168.56H543.624L561.8 130.416L531.72 61.808H563.336L576.904 98.416L589.576 61.808H620.936Z" fill="#EA580C"/>
<path d="M97.4225 152.833C96.6527 154.167 94.7282 154.167 93.9584 152.833L31.8727 45.2976C31.1029 43.9643 32.0651 42.2976 33.6047 42.2976L157.776 42.2976C159.316 42.2976 160.278 43.9643 159.508 45.2976L97.4225 152.833Z" fill="#EA580C"/>
<path d="M64.4927 5.95239C64.8776 5.28573 65.8399 5.28573 66.2248 5.95239L81.3004 32.0641C81.6853 32.7308 81.2042 33.5641 80.4344 33.5641H50.2832C49.5134 33.5641 49.0322 32.7308 49.4171 32.0641L64.4927 5.95239Z" fill="#EA580C"/>
<path d="M125.304 5.95239C125.689 5.28573 126.651 5.28573 127.036 5.95239L142.112 32.0641C142.496 32.7308 142.015 33.5641 141.246 33.5641H111.094C110.325 33.5641 109.843 32.7308 110.228 32.0641L125.304 5.95239Z" fill="#EA580C"/>
<path d="M96.866 132.5C96.4811 133.167 95.5189 133.167 95.134 132.5L83.8756 113C83.4907 112.333 83.9719 111.5 84.7417 111.5L107.258 111.5C108.028 111.5 108.509 112.333 108.124 113L96.866 132.5Z" fill="#1E1E1E"/>
</g>
<defs>
<clipPath id="clip0_10_207">
<rect width="639" height="178" fill="white"/>
</clipPath>
</defs>
</svg>
